<svg width="216" height="86" viewBox="0 0 216 86" fill="none" xmlns="http://www.w3.org/2000/svg">
<rect x="8" width="208" height="86" rx="8" fill="#EAF1F8"/>
<g clip-path="url(#clip0_13_9939)">
<path fill-rule="evenodd" clip-rule="evenodd" d="M0.709928 14.6004C0.317845 14.9894 0.315314 15.6225 0.704273 16.0146L8.05488 23.4242C8.44383 23.8163 9.077 23.8189 9.46908 23.4299L16.8472 16.1105C17.2393 15.7216 17.2418 15.0884 16.8529 14.6963L9.50227 7.28671C9.11331 6.89463 8.48015 6.8921 8.08806 7.28106L0.709928 14.6004Z" fill="#EAF1F8"/>
<path d="M9.90963 7.03128L11.333 8.02571L2.62116 14.6553C2.24891 14.9267 2.25452 15.3882 2.65306 15.679L11.333 22.2849L9.90961 23.2793L1.24441 16.6844C-0.409885 15.1553 -0.409885 15.1553 1.21253 13.6499L9.90963 7.03128Z" fill="#EAF1F8"/>
</g>
<defs>
<clipPath id="clip0_13_9939">
<rect width="20" height="17" fill="white" transform="matrix(0 -1 1 0 0 25)"/>
</clipPath>
</defs>
</svg>
