<svg width="216" height="48" viewBox="0 0 216 48" fill="none" xmlns="http://www.w3.org/2000/svg">
<rect width="208" height="48" rx="8" transform="matrix(-1 0 0 1 208 0)" fill="#F2F0F4"/>
<g clip-path="url(#clip0_14_9940)">
<path fill-rule="evenodd" clip-rule="evenodd" d="M215.29 14.6004C215.682 14.9894 215.685 15.6225 215.296 16.0146L207.945 23.4242C207.556 23.8163 206.923 23.8189 206.531 23.4299L199.153 16.1105C198.761 15.7216 198.758 15.0884 199.147 14.6963L206.498 7.28671C206.887 6.89463 207.52 6.8921 207.912 7.28106L215.29 14.6004Z" fill="#F2F0F4"/>
<path d="M206.09 7.03128L204.667 8.02571L213.379 14.6553C213.751 14.9267 213.745 15.3882 213.347 15.679L204.667 22.2849L206.09 23.2793L214.756 16.6844C216.41 15.1553 216.41 15.1553 214.787 13.6499L206.09 7.03128Z" fill="#F2F0F4"/>
</g>
<defs>
<clipPath id="clip0_14_9940">
<rect width="20" height="17" fill="white" transform="matrix(0 -1 -1 0 216 25)"/>
</clipPath>
</defs>
</svg>
